<?xml version="1.0" standalone="no"?>
<!DOCTYPE svg PUBLIC "-//W3C//DTD SVG 20010904//EN"
 "http://www.w3.org/TR/2001/REC-SVG-20010904/DTD/svg10.dtd">
<svg version="1.0" xmlns="http://www.w3.org/2000/svg"
 width="1200.000000pt" height="1200.000000pt" viewBox="0 0 1200.000000 1200.000000"
 preserveAspectRatio="xMidYMid meet">
<metadata>
Created by potrace 1.11, written by Peter Selinger 2001-2013
</metadata>
<g transform="translate(0.000000,1200.000000) scale(0.100000,-0.100000)"
fill="#000000" stroke="none">
<path d="M2480 11949 c-894 -8 -1024 -12 -1132 -40 -341 -86 -682 -294 -911
-556 -189 -216 -345 -522 -401 -784 -34 -160 -37 -603 -33 -4824 3 -3024 7
-4148 16 -4225 6 -57 21 -138 32 -180 47 -166 159 -411 254 -555 92 -138 291
-334 465 -457 144 -102 379 -208 590 -267 l95 -26 4455 -3 c3067 -2 4484 0
4547 8 179 20 441 117 638 235 435 261 725 673 831 1179 43 208 46 566 40
4611 -6 4297 -8 4432 -83 4670 -15 49 -150 309 -202 390 -261 408 -627 670
-1104 791 -96 24 -108 25 -680 34 -666 11 -6236 10 -7417 -1z m3651 -2279
c157 -5 319 -14 359 -20 253 -36 646 -231 940 -466 120 -97 332 -310 430 -434
210 -265 345 -523 420 -802 41 -154 57 -274 65 -474 8 -201 18 -271 51 -341
44 -92 184 -197 298 -223 26 -6 158 -17 294 -25 337 -20 427 -32 479 -61 73
-42 141 -143 180 -269 17 -57 18 -118 17 -1090 0 -1134 -4 -1237 -54 -1430
-108 -419 -320 -779 -643 -1091 -382 -370 -797 -570 -1317 -636 -83 -10 -418
-13 -1590 -13 -1589 0 -1866 7 -2030 45 -403 96 -763 301 -1076 614 -297 297
-486 616 -589 991 -61 222 -73 355 -85 890 -10 484 4 2511 20 2763 12 198 27
273 91 467 236 709 770 1250 1474 1493 179 61 353 94 585 111 164 12 1341 12
1681 1z"/>
<path d="M4745 7720 c-240 -10 -310 -29 -395 -106 -172 -155 -172 -440 0 -612
72 -72 128 -93 283 -103 175 -11 1121 -11 1315 1 136 7 160 12 208 35 75 37
158 120 192 192 25 53 27 68 27 183 0 116 -2 129 -28 181 -51 104 -175 194
-302 219 -73 14 -1034 22 -1300 10z"/>
<path d="M5025 5059 c-518 -9 -587 -21 -683 -123 -118 -125 -155 -319 -88
-459 33 -68 122 -168 180 -202 28 -16 70 -28 126 -35 141 -18 1014 -23 1885
-11 1044 14 1064 16 1169 144 19 24 48 70 63 103 25 53 28 70 28 164 0 97 -2
110 -31 171 -35 73 -113 158 -176 190 -75 38 -161 49 -478 59 -338 10 -1408
10 -1995 -1z"/>
</g>
</svg>
